G75*
G70*
%OFA0B0*%
%FSLAX24Y24*%
%IPPOS*%
%LPD*%
%AMOC8*
5,1,8,0,0,1.08239X$1,22.5*
%
%ADD10C,0.0050*%
%ADD11C,0.0080*%
%ADD12C,0.0060*%
%ADD13C,0.0020*%
%ADD14R,0.0200X0.0850*%
D10*
X005058Y004156D02*
X005558Y004156D01*
X005558Y005101D01*
X005058Y005101D01*
X005058Y004156D01*
X005808Y004156D02*
X005808Y005101D01*
X006308Y005101D01*
X006308Y004156D01*
X005808Y004156D01*
X006558Y004156D02*
X006558Y005101D01*
X007058Y005101D01*
X007058Y004156D01*
X006558Y004156D01*
X008246Y004463D02*
X008246Y003793D01*
X009369Y003793D01*
X009369Y004463D01*
X008246Y004463D01*
X008256Y004793D02*
X008256Y005463D01*
X009359Y005463D01*
X009359Y004793D01*
X008256Y004793D01*
X008613Y005765D02*
X007750Y006628D01*
X008808Y007686D01*
X009865Y006628D01*
X009002Y005765D01*
X008613Y005765D01*
X008308Y006628D02*
X008310Y006672D01*
X008316Y006716D01*
X008326Y006759D01*
X008339Y006801D01*
X008356Y006842D01*
X008377Y006881D01*
X008401Y006918D01*
X008428Y006953D01*
X008458Y006985D01*
X008491Y007015D01*
X008527Y007041D01*
X008564Y007065D01*
X008604Y007084D01*
X008645Y007101D01*
X008688Y007113D01*
X008731Y007122D01*
X008775Y007127D01*
X008819Y007128D01*
X008863Y007125D01*
X008907Y007118D01*
X008950Y007107D01*
X008992Y007093D01*
X009032Y007075D01*
X009071Y007053D01*
X009107Y007029D01*
X009141Y007001D01*
X009173Y006970D01*
X009202Y006936D01*
X009228Y006900D01*
X009250Y006862D01*
X009269Y006822D01*
X009284Y006780D01*
X009296Y006738D01*
X009304Y006694D01*
X009308Y006650D01*
X009308Y006606D01*
X009304Y006562D01*
X009296Y006518D01*
X009284Y006476D01*
X009269Y006434D01*
X009250Y006394D01*
X009228Y006356D01*
X009202Y006320D01*
X009173Y006286D01*
X009141Y006255D01*
X009107Y006227D01*
X009071Y006203D01*
X009032Y006181D01*
X008992Y006163D01*
X008950Y006149D01*
X008907Y006138D01*
X008863Y006131D01*
X008819Y006128D01*
X008775Y006129D01*
X008731Y006134D01*
X008688Y006143D01*
X008645Y006155D01*
X008604Y006172D01*
X008564Y006191D01*
X008527Y006215D01*
X008491Y006241D01*
X008458Y006271D01*
X008428Y006303D01*
X008401Y006338D01*
X008377Y006375D01*
X008356Y006414D01*
X008339Y006455D01*
X008326Y006497D01*
X008316Y006540D01*
X008310Y006584D01*
X008308Y006628D01*
X007058Y006656D02*
X006558Y006656D01*
X006558Y007601D01*
X007058Y007601D01*
X007058Y006656D01*
X004142Y005689D02*
X004142Y004567D01*
X003473Y004567D01*
X003473Y005689D01*
X004142Y005689D01*
X003058Y005601D02*
X002558Y005601D01*
X002558Y004656D01*
X003058Y004656D01*
X003058Y005601D01*
X003558Y006656D02*
X004058Y006656D01*
X004058Y007601D01*
X003558Y007601D01*
X003558Y006656D01*
X004835Y010628D02*
X004835Y011128D01*
X005780Y011128D01*
X005780Y010628D01*
X004835Y010628D01*
X006335Y010628D02*
X006335Y011128D01*
X007280Y011128D01*
X007280Y010628D01*
X006335Y010628D01*
X010558Y009101D02*
X010558Y008156D01*
X011058Y008156D01*
X011058Y009101D01*
X010558Y009101D01*
X013032Y008850D02*
X013032Y008699D01*
X013107Y008624D01*
X013032Y008850D02*
X013107Y008925D01*
X013182Y008925D01*
X013483Y008624D01*
X013483Y008925D01*
X016182Y008900D02*
X016407Y008674D01*
X016407Y008975D01*
X016182Y008900D02*
X016633Y008900D01*
X011642Y005679D02*
X010973Y005679D01*
X010973Y004577D01*
X011642Y004577D01*
X011642Y005679D01*
X013032Y005174D02*
X013483Y005174D01*
X013483Y005024D02*
X013483Y005325D01*
X013182Y005024D02*
X013032Y005174D01*
X012808Y003601D02*
X013308Y003601D01*
X013308Y002656D01*
X012808Y002656D01*
X012808Y003601D01*
X013558Y003601D02*
X014058Y003601D01*
X014058Y002656D01*
X013558Y002656D01*
X013558Y003601D01*
X014308Y003601D02*
X014808Y003601D01*
X014808Y002656D01*
X014308Y002656D01*
X014308Y003601D01*
X016182Y005099D02*
X016257Y005024D01*
X016182Y005099D02*
X016182Y005250D01*
X016257Y005325D01*
X016332Y005325D01*
X016407Y005250D01*
X016482Y005325D01*
X016557Y005325D01*
X016633Y005250D01*
X016633Y005099D01*
X016557Y005024D01*
X016407Y005174D02*
X016407Y005250D01*
D11*
X018058Y006299D02*
X018308Y006049D01*
X018808Y006049D01*
X019058Y006299D01*
X019058Y006799D01*
X018808Y007049D01*
X019058Y007299D01*
X019058Y007799D01*
X018808Y008049D01*
X018308Y008049D01*
X018058Y007799D01*
X018058Y007299D01*
X018308Y007049D01*
X018058Y006799D01*
X018058Y006299D01*
X007308Y009128D02*
X007308Y009628D01*
X007058Y009878D01*
X006558Y009878D01*
X006308Y009628D01*
X006058Y009878D01*
X005558Y009878D01*
X005308Y009628D01*
X005058Y009878D01*
X004558Y009878D01*
X004308Y009628D01*
X004058Y009878D01*
X003558Y009878D01*
X003308Y009628D01*
X003058Y009878D01*
X002558Y009878D01*
X002308Y009628D01*
X002308Y009128D01*
X002558Y008878D01*
X003058Y008878D01*
X003308Y009128D01*
X003558Y008878D01*
X004058Y008878D01*
X004308Y009128D01*
X004558Y008878D01*
X005058Y008878D01*
X005308Y009128D01*
X005558Y008878D01*
X006058Y008878D01*
X006308Y009128D01*
X006558Y008878D01*
X007058Y008878D01*
X007308Y009128D01*
X004558Y010628D02*
X004558Y011128D01*
X004308Y011378D01*
X003808Y011378D01*
X003558Y011128D01*
X003308Y011378D01*
X002808Y011378D01*
X002558Y011128D01*
X002558Y010628D01*
X002808Y010378D01*
X003308Y010378D01*
X003558Y010628D01*
X003808Y010378D01*
X004308Y010378D01*
X004558Y010628D01*
X002058Y008049D02*
X001558Y008049D01*
X001308Y007799D01*
X001308Y007299D01*
X001558Y007049D01*
X001308Y006799D01*
X001308Y006299D01*
X001558Y006049D01*
X002058Y006049D01*
X002308Y006299D01*
X002308Y006799D01*
X002058Y007049D01*
X002308Y007299D01*
X002308Y007799D01*
X002058Y008049D01*
X004376Y004695D02*
X004558Y004695D01*
X004650Y004573D01*
X004739Y004695D02*
X004558Y004695D01*
X004548Y004689D02*
X004472Y004573D01*
D12*
X008489Y008068D02*
X008489Y008105D01*
X008489Y008068D02*
X009126Y008068D01*
X009126Y008105D01*
X009126Y008423D02*
X009126Y008460D01*
X009126Y008797D02*
X009126Y008834D01*
X009126Y009151D02*
X009126Y009188D01*
X008489Y009188D01*
X008489Y009151D01*
X008489Y008834D02*
X008489Y008423D01*
X010748Y007188D02*
X011068Y007188D01*
X011068Y006968D01*
X011068Y006288D02*
X011068Y006068D01*
X010748Y006068D01*
X012258Y006649D02*
X012258Y007449D01*
X012408Y007449D01*
X012408Y007749D01*
X012308Y007749D01*
X012308Y008949D01*
X012408Y009049D01*
X012408Y007749D01*
X012408Y007449D02*
X012408Y006649D01*
X012408Y006349D01*
X012308Y006349D01*
X012308Y005149D01*
X012408Y005049D01*
X012808Y004649D01*
X013308Y004649D01*
X012408Y005049D02*
X012408Y006349D01*
X012408Y006649D02*
X012258Y006649D01*
X014058Y006299D02*
X015558Y006299D01*
X015558Y007799D01*
X014058Y007799D01*
X014058Y006299D01*
X013408Y007049D02*
X013410Y007124D01*
X013416Y007198D01*
X013426Y007272D01*
X013440Y007345D01*
X013457Y007417D01*
X013479Y007489D01*
X013504Y007559D01*
X013533Y007627D01*
X013566Y007695D01*
X013602Y007760D01*
X013641Y007823D01*
X013684Y007884D01*
X013730Y007943D01*
X013779Y007999D01*
X013831Y008052D01*
X013886Y008103D01*
X013943Y008150D01*
X014003Y008195D01*
X014065Y008236D01*
X014130Y008274D01*
X014196Y008308D01*
X014264Y008339D01*
X014333Y008366D01*
X014404Y008389D01*
X014476Y008409D01*
X014549Y008425D01*
X014622Y008437D01*
X014696Y008445D01*
X014771Y008449D01*
X014845Y008449D01*
X014920Y008445D01*
X014994Y008437D01*
X015067Y008425D01*
X015140Y008409D01*
X015212Y008389D01*
X015283Y008366D01*
X015352Y008339D01*
X015420Y008308D01*
X015486Y008274D01*
X015551Y008236D01*
X015613Y008195D01*
X015673Y008150D01*
X015730Y008103D01*
X015785Y008052D01*
X015837Y007999D01*
X015886Y007943D01*
X015932Y007884D01*
X015975Y007823D01*
X016014Y007760D01*
X016050Y007695D01*
X016083Y007627D01*
X016112Y007559D01*
X016137Y007489D01*
X016159Y007417D01*
X016176Y007345D01*
X016190Y007272D01*
X016200Y007198D01*
X016206Y007124D01*
X016208Y007049D01*
X016206Y006974D01*
X016200Y006900D01*
X016190Y006826D01*
X016176Y006753D01*
X016159Y006681D01*
X016137Y006609D01*
X016112Y006539D01*
X016083Y006471D01*
X016050Y006403D01*
X016014Y006338D01*
X015975Y006275D01*
X015932Y006214D01*
X015886Y006155D01*
X015837Y006099D01*
X015785Y006046D01*
X015730Y005995D01*
X015673Y005948D01*
X015613Y005903D01*
X015551Y005862D01*
X015486Y005824D01*
X015420Y005790D01*
X015352Y005759D01*
X015283Y005732D01*
X015212Y005709D01*
X015140Y005689D01*
X015067Y005673D01*
X014994Y005661D01*
X014920Y005653D01*
X014845Y005649D01*
X014771Y005649D01*
X014696Y005653D01*
X014622Y005661D01*
X014549Y005673D01*
X014476Y005689D01*
X014404Y005709D01*
X014333Y005732D01*
X014264Y005759D01*
X014196Y005790D01*
X014130Y005824D01*
X014065Y005862D01*
X014003Y005903D01*
X013943Y005948D01*
X013886Y005995D01*
X013831Y006046D01*
X013779Y006099D01*
X013730Y006155D01*
X013684Y006214D01*
X013641Y006275D01*
X013602Y006338D01*
X013566Y006403D01*
X013533Y006471D01*
X013504Y006539D01*
X013479Y006609D01*
X013457Y006681D01*
X013440Y006753D01*
X013426Y006826D01*
X013416Y006900D01*
X013410Y006974D01*
X013408Y007049D01*
X012408Y009049D02*
X012808Y009449D01*
X013308Y009449D01*
X014358Y009449D02*
X015258Y009449D01*
X016308Y009449D02*
X016808Y009449D01*
X017208Y009049D01*
X017308Y008949D01*
X017308Y007749D01*
X017208Y007749D01*
X017208Y009049D01*
X017208Y007749D02*
X017208Y007449D01*
X017208Y006649D01*
X017208Y006349D01*
X017308Y006349D01*
X017308Y005149D01*
X017208Y005049D01*
X017208Y006349D01*
X017208Y006649D02*
X017358Y006649D01*
X017358Y007449D01*
X017208Y007449D01*
X017208Y005049D02*
X016808Y004649D01*
X016308Y004649D01*
X015258Y004649D02*
X014358Y004649D01*
X012068Y003688D02*
X012068Y003468D01*
X012068Y003688D02*
X011748Y003688D01*
X012068Y002788D02*
X012068Y002568D01*
X011748Y002568D01*
D13*
X014158Y006399D02*
X015458Y006399D01*
X015458Y007699D01*
X014158Y007699D01*
X014158Y006399D01*
X014508Y007049D02*
X014510Y007083D01*
X014516Y007117D01*
X014525Y007150D01*
X014539Y007181D01*
X014556Y007211D01*
X014576Y007239D01*
X014599Y007264D01*
X014625Y007287D01*
X014653Y007306D01*
X014683Y007322D01*
X014715Y007334D01*
X014748Y007343D01*
X014782Y007348D01*
X014817Y007349D01*
X014851Y007346D01*
X014884Y007339D01*
X014917Y007329D01*
X014948Y007314D01*
X014977Y007297D01*
X015004Y007276D01*
X015029Y007252D01*
X015051Y007225D01*
X015069Y007197D01*
X015084Y007166D01*
X015096Y007134D01*
X015104Y007100D01*
X015108Y007066D01*
X015108Y007032D01*
X015104Y006998D01*
X015096Y006964D01*
X015084Y006932D01*
X015069Y006901D01*
X015051Y006873D01*
X015029Y006846D01*
X015004Y006822D01*
X014977Y006801D01*
X014948Y006784D01*
X014917Y006769D01*
X014884Y006759D01*
X014851Y006752D01*
X014817Y006749D01*
X014782Y006750D01*
X014748Y006755D01*
X014715Y006764D01*
X014683Y006776D01*
X014653Y006792D01*
X014625Y006811D01*
X014599Y006834D01*
X014576Y006859D01*
X014556Y006887D01*
X014539Y006917D01*
X014525Y006948D01*
X014516Y006981D01*
X014510Y007015D01*
X014508Y007049D01*
X014408Y007049D02*
X014410Y007089D01*
X014416Y007128D01*
X014426Y007167D01*
X014439Y007204D01*
X014457Y007240D01*
X014478Y007274D01*
X014502Y007306D01*
X014529Y007335D01*
X014559Y007362D01*
X014591Y007385D01*
X014626Y007405D01*
X014662Y007421D01*
X014700Y007434D01*
X014739Y007443D01*
X014778Y007448D01*
X014818Y007449D01*
X014858Y007446D01*
X014897Y007439D01*
X014935Y007428D01*
X014973Y007414D01*
X015008Y007395D01*
X015041Y007374D01*
X015073Y007349D01*
X015101Y007321D01*
X015127Y007291D01*
X015149Y007258D01*
X015168Y007223D01*
X015184Y007186D01*
X015196Y007148D01*
X015204Y007109D01*
X015208Y007069D01*
X015208Y007029D01*
X015204Y006989D01*
X015196Y006950D01*
X015184Y006912D01*
X015168Y006875D01*
X015149Y006840D01*
X015127Y006807D01*
X015101Y006777D01*
X015073Y006749D01*
X015041Y006724D01*
X015008Y006703D01*
X014973Y006684D01*
X014935Y006670D01*
X014897Y006659D01*
X014858Y006652D01*
X014818Y006649D01*
X014778Y006650D01*
X014739Y006655D01*
X014700Y006664D01*
X014662Y006677D01*
X014626Y006693D01*
X014591Y006713D01*
X014559Y006736D01*
X014529Y006763D01*
X014502Y006792D01*
X014478Y006824D01*
X014457Y006858D01*
X014439Y006894D01*
X014426Y006931D01*
X014416Y006970D01*
X014410Y007009D01*
X014408Y007049D01*
D14*
X012408Y008374D03*
X012408Y005724D03*
X017208Y005724D03*
X017208Y008374D03*
M02*
