G75*
G70*
%OFA0B0*%
%FSLAX24Y24*%
%IPPOS*%
%LPD*%
%AMOC8*
5,1,8,0,0,1.08239X$1,22.5*
%
%ADD10C,0.0000*%
D10*
X000780Y002128D02*
X018024Y002128D01*
X019993Y004097D01*
X019993Y010790D01*
X018181Y010790D02*
X018183Y010840D01*
X018189Y010890D01*
X018199Y010939D01*
X018213Y010987D01*
X018230Y011034D01*
X018251Y011079D01*
X018276Y011123D01*
X018304Y011164D01*
X018336Y011203D01*
X018370Y011240D01*
X018407Y011274D01*
X018447Y011304D01*
X018489Y011331D01*
X018533Y011355D01*
X018579Y011376D01*
X018626Y011392D01*
X018674Y011405D01*
X018724Y011414D01*
X018773Y011419D01*
X018824Y011420D01*
X018874Y011417D01*
X018923Y011410D01*
X018972Y011399D01*
X019020Y011384D01*
X019066Y011366D01*
X019111Y011344D01*
X019154Y011318D01*
X019195Y011289D01*
X019234Y011257D01*
X019270Y011222D01*
X019302Y011184D01*
X019332Y011144D01*
X019359Y011101D01*
X019382Y011057D01*
X019401Y011011D01*
X019417Y010963D01*
X019429Y010914D01*
X019437Y010865D01*
X019441Y010815D01*
X019441Y010765D01*
X019437Y010715D01*
X019429Y010666D01*
X019417Y010617D01*
X019401Y010569D01*
X019382Y010523D01*
X019359Y010479D01*
X019332Y010436D01*
X019302Y010396D01*
X019270Y010358D01*
X019234Y010323D01*
X019195Y010291D01*
X019154Y010262D01*
X019111Y010236D01*
X019066Y010214D01*
X019020Y010196D01*
X018972Y010181D01*
X018923Y010170D01*
X018874Y010163D01*
X018824Y010160D01*
X018773Y010161D01*
X018724Y010166D01*
X018674Y010175D01*
X018626Y010188D01*
X018579Y010204D01*
X018533Y010225D01*
X018489Y010249D01*
X018447Y010276D01*
X018407Y010306D01*
X018370Y010340D01*
X018336Y010377D01*
X018304Y010416D01*
X018276Y010457D01*
X018251Y010501D01*
X018230Y010546D01*
X018213Y010593D01*
X018199Y010641D01*
X018189Y010690D01*
X018183Y010740D01*
X018181Y010790D01*
X018811Y011971D02*
X018877Y011969D01*
X018943Y011964D01*
X019009Y011954D01*
X019074Y011941D01*
X019138Y011925D01*
X019201Y011905D01*
X019263Y011881D01*
X019323Y011854D01*
X019382Y011824D01*
X019439Y011790D01*
X019494Y011753D01*
X019547Y011713D01*
X019598Y011671D01*
X019646Y011625D01*
X019692Y011577D01*
X019734Y011526D01*
X019774Y011473D01*
X019811Y011418D01*
X019845Y011361D01*
X019875Y011302D01*
X019902Y011242D01*
X019926Y011180D01*
X019946Y011117D01*
X019962Y011053D01*
X019975Y010988D01*
X019985Y010922D01*
X019990Y010856D01*
X019992Y010790D01*
X018811Y011971D02*
X001489Y011971D01*
X000859Y010790D02*
X000861Y010840D01*
X000867Y010890D01*
X000877Y010939D01*
X000891Y010987D01*
X000908Y011034D01*
X000929Y011079D01*
X000954Y011123D01*
X000982Y011164D01*
X001014Y011203D01*
X001048Y011240D01*
X001085Y011274D01*
X001125Y011304D01*
X001167Y011331D01*
X001211Y011355D01*
X001257Y011376D01*
X001304Y011392D01*
X001352Y011405D01*
X001402Y011414D01*
X001451Y011419D01*
X001502Y011420D01*
X001552Y011417D01*
X001601Y011410D01*
X001650Y011399D01*
X001698Y011384D01*
X001744Y011366D01*
X001789Y011344D01*
X001832Y011318D01*
X001873Y011289D01*
X001912Y011257D01*
X001948Y011222D01*
X001980Y011184D01*
X002010Y011144D01*
X002037Y011101D01*
X002060Y011057D01*
X002079Y011011D01*
X002095Y010963D01*
X002107Y010914D01*
X002115Y010865D01*
X002119Y010815D01*
X002119Y010765D01*
X002115Y010715D01*
X002107Y010666D01*
X002095Y010617D01*
X002079Y010569D01*
X002060Y010523D01*
X002037Y010479D01*
X002010Y010436D01*
X001980Y010396D01*
X001948Y010358D01*
X001912Y010323D01*
X001873Y010291D01*
X001832Y010262D01*
X001789Y010236D01*
X001744Y010214D01*
X001698Y010196D01*
X001650Y010181D01*
X001601Y010170D01*
X001552Y010163D01*
X001502Y010160D01*
X001451Y010161D01*
X001402Y010166D01*
X001352Y010175D01*
X001304Y010188D01*
X001257Y010204D01*
X001211Y010225D01*
X001167Y010249D01*
X001125Y010276D01*
X001085Y010306D01*
X001048Y010340D01*
X001014Y010377D01*
X000982Y010416D01*
X000954Y010457D01*
X000929Y010501D01*
X000908Y010546D01*
X000891Y010593D01*
X000877Y010641D01*
X000867Y010690D01*
X000861Y010740D01*
X000859Y010790D01*
X000308Y010790D02*
X000308Y002601D01*
X000310Y002560D01*
X000315Y002519D01*
X000324Y002479D01*
X000336Y002440D01*
X000352Y002402D01*
X000371Y002365D01*
X000393Y002330D01*
X000418Y002298D01*
X000446Y002267D01*
X000477Y002239D01*
X000509Y002214D01*
X000544Y002192D01*
X000581Y002173D01*
X000619Y002157D01*
X000658Y002145D01*
X000698Y002136D01*
X000739Y002131D01*
X000780Y002129D01*
X000662Y005278D02*
X000664Y005308D01*
X000670Y005338D01*
X000679Y005367D01*
X000692Y005394D01*
X000709Y005419D01*
X000728Y005442D01*
X000751Y005463D01*
X000776Y005480D01*
X000802Y005494D01*
X000831Y005504D01*
X000860Y005511D01*
X000890Y005514D01*
X000921Y005513D01*
X000951Y005508D01*
X000980Y005499D01*
X001007Y005487D01*
X001033Y005472D01*
X001057Y005453D01*
X001078Y005431D01*
X001096Y005407D01*
X001111Y005380D01*
X001122Y005352D01*
X001130Y005323D01*
X001134Y005293D01*
X001134Y005263D01*
X001130Y005233D01*
X001122Y005204D01*
X001111Y005176D01*
X001096Y005149D01*
X001078Y005125D01*
X001057Y005103D01*
X001033Y005084D01*
X001007Y005069D01*
X000980Y005057D01*
X000951Y005048D01*
X000921Y005043D01*
X000890Y005042D01*
X000860Y005045D01*
X000831Y005052D01*
X000802Y005062D01*
X000776Y005076D01*
X000751Y005093D01*
X000728Y005114D01*
X000709Y005137D01*
X000692Y005162D01*
X000679Y005189D01*
X000670Y005218D01*
X000664Y005248D01*
X000662Y005278D01*
X000662Y008821D02*
X000664Y008851D01*
X000670Y008881D01*
X000679Y008910D01*
X000692Y008937D01*
X000709Y008962D01*
X000728Y008985D01*
X000751Y009006D01*
X000776Y009023D01*
X000802Y009037D01*
X000831Y009047D01*
X000860Y009054D01*
X000890Y009057D01*
X000921Y009056D01*
X000951Y009051D01*
X000980Y009042D01*
X001007Y009030D01*
X001033Y009015D01*
X001057Y008996D01*
X001078Y008974D01*
X001096Y008950D01*
X001111Y008923D01*
X001122Y008895D01*
X001130Y008866D01*
X001134Y008836D01*
X001134Y008806D01*
X001130Y008776D01*
X001122Y008747D01*
X001111Y008719D01*
X001096Y008692D01*
X001078Y008668D01*
X001057Y008646D01*
X001033Y008627D01*
X001007Y008612D01*
X000980Y008600D01*
X000951Y008591D01*
X000921Y008586D01*
X000890Y008585D01*
X000860Y008588D01*
X000831Y008595D01*
X000802Y008605D01*
X000776Y008619D01*
X000751Y008636D01*
X000728Y008657D01*
X000709Y008680D01*
X000692Y008705D01*
X000679Y008732D01*
X000670Y008761D01*
X000664Y008791D01*
X000662Y008821D01*
X000308Y010790D02*
X000310Y010856D01*
X000315Y010922D01*
X000325Y010988D01*
X000338Y011053D01*
X000354Y011117D01*
X000374Y011180D01*
X000398Y011242D01*
X000425Y011302D01*
X000455Y011361D01*
X000489Y011418D01*
X000526Y011473D01*
X000566Y011526D01*
X000608Y011577D01*
X000654Y011625D01*
X000702Y011671D01*
X000753Y011713D01*
X000806Y011753D01*
X000861Y011790D01*
X000918Y011824D01*
X000977Y011854D01*
X001037Y011881D01*
X001099Y011905D01*
X001162Y011925D01*
X001226Y011941D01*
X001291Y011954D01*
X001357Y011964D01*
X001423Y011969D01*
X001489Y011971D01*
X012683Y007049D02*
X012685Y007086D01*
X012691Y007123D01*
X012700Y007159D01*
X012714Y007193D01*
X012731Y007226D01*
X012751Y007258D01*
X012774Y007287D01*
X012800Y007313D01*
X012829Y007336D01*
X012860Y007356D01*
X012894Y007373D01*
X012928Y007387D01*
X012964Y007396D01*
X013001Y007402D01*
X013038Y007404D01*
X013075Y007402D01*
X013112Y007396D01*
X013148Y007387D01*
X013182Y007373D01*
X013215Y007356D01*
X013247Y007336D01*
X013276Y007313D01*
X013302Y007287D01*
X013325Y007258D01*
X013345Y007227D01*
X013362Y007193D01*
X013376Y007159D01*
X013385Y007123D01*
X013391Y007086D01*
X013393Y007049D01*
X013391Y007012D01*
X013385Y006975D01*
X013376Y006939D01*
X013362Y006905D01*
X013345Y006872D01*
X013325Y006840D01*
X013302Y006811D01*
X013276Y006785D01*
X013247Y006762D01*
X013216Y006742D01*
X013182Y006725D01*
X013148Y006711D01*
X013112Y006702D01*
X013075Y006696D01*
X013038Y006694D01*
X013001Y006696D01*
X012964Y006702D01*
X012928Y006711D01*
X012894Y006725D01*
X012861Y006742D01*
X012829Y006762D01*
X012800Y006785D01*
X012774Y006811D01*
X012751Y006840D01*
X012731Y006871D01*
X012714Y006905D01*
X012700Y006939D01*
X012691Y006975D01*
X012685Y007012D01*
X012683Y007049D01*
X016223Y007049D02*
X016225Y007086D01*
X016231Y007123D01*
X016240Y007159D01*
X016254Y007193D01*
X016271Y007226D01*
X016291Y007258D01*
X016314Y007287D01*
X016340Y007313D01*
X016369Y007336D01*
X016400Y007356D01*
X016434Y007373D01*
X016468Y007387D01*
X016504Y007396D01*
X016541Y007402D01*
X016578Y007404D01*
X016615Y007402D01*
X016652Y007396D01*
X016688Y007387D01*
X016722Y007373D01*
X016755Y007356D01*
X016787Y007336D01*
X016816Y007313D01*
X016842Y007287D01*
X016865Y007258D01*
X016885Y007227D01*
X016902Y007193D01*
X016916Y007159D01*
X016925Y007123D01*
X016931Y007086D01*
X016933Y007049D01*
X016931Y007012D01*
X016925Y006975D01*
X016916Y006939D01*
X016902Y006905D01*
X016885Y006872D01*
X016865Y006840D01*
X016842Y006811D01*
X016816Y006785D01*
X016787Y006762D01*
X016756Y006742D01*
X016722Y006725D01*
X016688Y006711D01*
X016652Y006702D01*
X016615Y006696D01*
X016578Y006694D01*
X016541Y006696D01*
X016504Y006702D01*
X016468Y006711D01*
X016434Y006725D01*
X016401Y006742D01*
X016369Y006762D01*
X016340Y006785D01*
X016314Y006811D01*
X016291Y006840D01*
X016271Y006871D01*
X016254Y006905D01*
X016240Y006939D01*
X016231Y006975D01*
X016225Y007012D01*
X016223Y007049D01*
X019166Y005278D02*
X019168Y005308D01*
X019174Y005338D01*
X019183Y005367D01*
X019196Y005394D01*
X019213Y005419D01*
X019232Y005442D01*
X019255Y005463D01*
X019280Y005480D01*
X019306Y005494D01*
X019335Y005504D01*
X019364Y005511D01*
X019394Y005514D01*
X019425Y005513D01*
X019455Y005508D01*
X019484Y005499D01*
X019511Y005487D01*
X019537Y005472D01*
X019561Y005453D01*
X019582Y005431D01*
X019600Y005407D01*
X019615Y005380D01*
X019626Y005352D01*
X019634Y005323D01*
X019638Y005293D01*
X019638Y005263D01*
X019634Y005233D01*
X019626Y005204D01*
X019615Y005176D01*
X019600Y005149D01*
X019582Y005125D01*
X019561Y005103D01*
X019537Y005084D01*
X019511Y005069D01*
X019484Y005057D01*
X019455Y005048D01*
X019425Y005043D01*
X019394Y005042D01*
X019364Y005045D01*
X019335Y005052D01*
X019306Y005062D01*
X019280Y005076D01*
X019255Y005093D01*
X019232Y005114D01*
X019213Y005137D01*
X019196Y005162D01*
X019183Y005189D01*
X019174Y005218D01*
X019168Y005248D01*
X019166Y005278D01*
X017394Y004097D02*
X017396Y004147D01*
X017402Y004197D01*
X017412Y004246D01*
X017426Y004294D01*
X017443Y004341D01*
X017464Y004386D01*
X017489Y004430D01*
X017517Y004471D01*
X017549Y004510D01*
X017583Y004547D01*
X017620Y004581D01*
X017660Y004611D01*
X017702Y004638D01*
X017746Y004662D01*
X017792Y004683D01*
X017839Y004699D01*
X017887Y004712D01*
X017937Y004721D01*
X017986Y004726D01*
X018037Y004727D01*
X018087Y004724D01*
X018136Y004717D01*
X018185Y004706D01*
X018233Y004691D01*
X018279Y004673D01*
X018324Y004651D01*
X018367Y004625D01*
X018408Y004596D01*
X018447Y004564D01*
X018483Y004529D01*
X018515Y004491D01*
X018545Y004451D01*
X018572Y004408D01*
X018595Y004364D01*
X018614Y004318D01*
X018630Y004270D01*
X018642Y004221D01*
X018650Y004172D01*
X018654Y004122D01*
X018654Y004072D01*
X018650Y004022D01*
X018642Y003973D01*
X018630Y003924D01*
X018614Y003876D01*
X018595Y003830D01*
X018572Y003786D01*
X018545Y003743D01*
X018515Y003703D01*
X018483Y003665D01*
X018447Y003630D01*
X018408Y003598D01*
X018367Y003569D01*
X018324Y003543D01*
X018279Y003521D01*
X018233Y003503D01*
X018185Y003488D01*
X018136Y003477D01*
X018087Y003470D01*
X018037Y003467D01*
X017986Y003468D01*
X017937Y003473D01*
X017887Y003482D01*
X017839Y003495D01*
X017792Y003511D01*
X017746Y003532D01*
X017702Y003556D01*
X017660Y003583D01*
X017620Y003613D01*
X017583Y003647D01*
X017549Y003684D01*
X017517Y003723D01*
X017489Y003764D01*
X017464Y003808D01*
X017443Y003853D01*
X017426Y003900D01*
X017412Y003948D01*
X017402Y003997D01*
X017396Y004047D01*
X017394Y004097D01*
X019166Y008821D02*
X019168Y008851D01*
X019174Y008881D01*
X019183Y008910D01*
X019196Y008937D01*
X019213Y008962D01*
X019232Y008985D01*
X019255Y009006D01*
X019280Y009023D01*
X019306Y009037D01*
X019335Y009047D01*
X019364Y009054D01*
X019394Y009057D01*
X019425Y009056D01*
X019455Y009051D01*
X019484Y009042D01*
X019511Y009030D01*
X019537Y009015D01*
X019561Y008996D01*
X019582Y008974D01*
X019600Y008950D01*
X019615Y008923D01*
X019626Y008895D01*
X019634Y008866D01*
X019638Y008836D01*
X019638Y008806D01*
X019634Y008776D01*
X019626Y008747D01*
X019615Y008719D01*
X019600Y008692D01*
X019582Y008668D01*
X019561Y008646D01*
X019537Y008627D01*
X019511Y008612D01*
X019484Y008600D01*
X019455Y008591D01*
X019425Y008586D01*
X019394Y008585D01*
X019364Y008588D01*
X019335Y008595D01*
X019306Y008605D01*
X019280Y008619D01*
X019255Y008636D01*
X019232Y008657D01*
X019213Y008680D01*
X019196Y008705D01*
X019183Y008732D01*
X019174Y008761D01*
X019168Y008791D01*
X019166Y008821D01*
M02*
