%
M48
M72
T01C0.0118
T02C0.0197
T03C0.0236
T04C0.0400
T05C0.0472
T06C0.0550
T07C0.0710
T08C0.1260
%
T01
X6495Y6003
X3308Y6253
X5808Y11628
T02
X3058Y3753
X4558Y5378
X5183Y5441
X10308Y3128
X10745Y3316
T03
X10808Y4128
X10308Y4128
X10308Y4628
X10308Y5128
X9808Y5128
X11308Y4128
X15308Y3128
X11058Y7878
X10558Y7878
X10058Y7878
X6808Y6378
X4558Y7441
X2058Y8378
X1558Y8378
X3808Y3753
X6808Y3753
T04
X1808Y6549
X1808Y7549
X2808Y9378
X3808Y9378
X4808Y9378
X5808Y9378
X6808Y9378
X4058Y10878
X3058Y10878
X18558Y7549
X18558Y6549
T05
X19402Y5278
X19402Y8821
X898Y8821
X898Y5278
T06
X13828Y4589
X15788Y4589
X15788Y9509
X13828Y9509
T07
X13038Y7049
X16578Y7049
T08
X18024Y4097
X18811Y10790
X1489Y10790
M30
